<?xml version="1.0" ?><!DOCTYPE svg  PUBLIC '-//W3C//DTD SVG 1.1//EN'  'http://www.w3.org/Graphics/SVG/1.1/DTD/svg11.dtd'><svg enable-background="new 0 0 64 64" height="64px" id="Layer_1" version="1.1" viewBox="0 0 64 64" width="64px" xml:space="preserve" xmlns="http://www.w3.org/2000/svg" xmlns:xlink="http://www.w3.org/1999/xlink"><g id="Litecoin_LTC"><g><g><g><g><g><g><g><g><circle cx="32" cy="32" fill="#FFFFFF" r="26.5"/></g></g></g><g><g><g><g><path d="M58,32c0-11.868-7.996-21.897-18.881-25.001C37.462,6.675,35.752,6.5,34,6.5            C19.365,6.5,7.5,18.365,7.5,33c0,7.773,3.348,14.765,8.679,19.612C20.565,55.987,26.051,58,32,58            C46.337,58,58,46.337,58,32z" fill="#FFE57F"/></g></g></g></g><g><g><g><path d="M42.852,7.825C50.99,12.349,56.5,21.029,56.5,31c0,14.635-11.865,26.5-26.5,26.5           c-3.868,0-7.539-0.836-10.852-2.325C22.955,57.291,27.336,58.5,32,58.5c14.635,0,26.5-11.865,26.5-26.5           C58.5,21.233,52.074,11.973,42.852,7.825z" fill="#FFD740"/></g></g></g><g><g><g><path d="M32,59C17.112,59,5,46.888,5,32S17.112,5,32,5s27,12.112,27,27S46.888,59,32,59z M32,6           C17.663,6,6,17.663,6,32s11.663,26,26,26s26-11.663,26-26S46.337,6,32,6z" fill="#37474F"/></g></g></g></g><g><g><g><g><circle cx="32" cy="32" fill="#FFD740" r="22.5"/></g></g></g><g><g><g><path d="M11.5,33c0-12.426,10.074-22.5,22.5-22.5c3.212,0,6.265,0.678,9.029,1.892           C39.77,10.554,36.009,9.5,32,9.5C19.574,9.5,9.5,19.574,9.5,32c0,9.214,5.541,17.129,13.471,20.608           C16.126,48.75,11.5,41.417,11.5,33z" fill="#FFCA28"/></g></g></g><g><g><g><path d="M41.029,11.392C47.874,15.25,52.5,22.583,52.5,31c0,12.426-10.074,22.5-22.5,22.5           c-3.212,0-6.265-0.678-9.029-1.892C24.23,53.446,27.991,54.5,32,54.5c12.426,0,22.5-10.074,22.5-22.5           C54.5,22.786,48.959,14.871,41.029,11.392z" fill="#FFE57F"/></g></g></g><g><g><g><path d="M32,55C19.317,55,9,44.683,9,32S19.317,9,32,9s23,10.317,23,23S44.683,55,32,55z M32,10           c-12.131,0-22,9.869-22,22s9.869,22,22,22s22-9.869,22-22S44.131,10,32,10z" fill="#37474F"/></g></g></g></g></g></g></g></g><g><g><g><g><path d="M29.979,40l1.842-7.307l4.36-1.777l1.049-4.286l-4.293,1.792L36.029,17h-8.771l-4.046,14.936       l-3.377,1.104l-1.116,4.137l3.375-1.183L19.711,45h23.345l1.497-5H29.979z" fill="#FFFFFF"/></g></g></g><g><g><g><polygon fill="#FFE57F" points="30.979,40 30.332,40 32.402,32.067 36.76,30.416 37.519,26.361 33.208,27.94 36.379,17        28.643,17 24.629,32.066 21.252,33.295 20.463,36.264 23.844,34.859 21.364,44 43.684,44 44.881,40      "/></g></g></g><g><g><g><path d="M43.428,45h-24.37l2.288-8.436l-3.369,1.398l1.443-5.43l3.377-1.229L26.875,16h9.805l-3.013,11.341       l4.275-1.567l-1.339,5.393l-4.363,1.653L30.627,39h14.598L43.428,45z M20.364,44h22.319l1.197-4H29.332l2.07-7.933l4.357-1.651       l0.759-3.055l-4.311,1.579L35.379,17h-7.736l-4.014,15.066l-3.377,1.229l-0.789,2.969l3.381-1.404L20.364,44z" fill="#37474F"/></g></g></g></g></g></svg>